Coordinates
version=1
nRows=16
nColumns=22
inDegrees=yes

Units are S.I. units (second, meters, Newtons, ...)
If the header above contains a line with 'inDegrees', this indicates whether rotational values are in degrees (yes) or radians (no).

endheader
time	pelvis_tilt	pelvis_list	pelvis_rotation	pelvis_tx	pelvis_ty	pelvis_tz	hip_flexion_r	hip_adduction_r	hip_rotation_r	knee_angle_r	ankle_angle_r	subtalar_angle_r	hip_flexion_l	hip_adduction_l	hip_rotation_l	knee_angle_l	ankle_angle_l	subtalar_angle_l	lumbar_extension	lumbar_bending	lumbar_rotation
      3.47000000	     -6.36471714	      1.28431696	    -39.06239061	      0.15630045	      0.88127726	      0.29311996	     25.64368665	     -1.58101923	      1.56580469	    -61.09412442	      7.12562460	      5.28700048	     11.42307514	     -0.22794045	      1.69269572	    -15.54313287	     14.92729048	      0.71425093	     -0.12066354	      0.20843655	      8.95499142
      3.48000000	     -6.24184404	      1.04147986	    -38.86353047	      0.16215373	      0.88145098	      0.29640186	     26.05275654	     -1.38161512	      1.54016492	    -59.85173824	      7.54983261	      5.13891897	     10.76730320	     -0.21921313	      1.95360618	    -15.67601760	     15.35815697	      0.43727914	     -0.23720615	      0.35593442	      8.81497761
      3.49000000	     -6.11483097	      0.81635590	    -38.68999580	      0.16794971	      0.88156245	      0.29973947	     26.44579269	     -1.19896717	      1.53390058	    -58.51343967	      7.91067286	      4.91140381	     10.09678933	     -0.20554208	      2.21354768	    -15.76939948	     15.79186755	      0.11842883	     -0.35003952	      0.48456720	      8.71583665
      3.50000000	     -5.99475940	      0.60693398	    -38.52522836	      0.17369811	      0.88158597	      0.30308041	     26.82785385	     -1.03116508	      1.53320709	    -57.08216798	      8.23162541	      4.67344901	      9.44769190	     -0.19254640	      2.44363321	    -15.87214468	     16.22311900	     -0.16007495	     -0.45506811	      0.61036380	      8.61301455
      3.51000000	     -5.88595532	      0.41026498	    -38.36324546	      0.17939318	      0.88152087	      0.30642774	     27.19626055	     -0.87490392	      1.52971810	    -55.55589789	      8.52512658	      4.48370862	      8.82309881	     -0.18660803	      2.64279219	    -15.98543575	     16.65854434	     -0.37919966	     -0.55187904	      0.73552392	      8.49928457
      3.52000000	     -5.76826235	      0.22794916	    -38.22013427	      0.18507567	      0.88140529	      0.30981022	     27.53616473	     -0.74448133	      1.52278771	    -53.93992389	      8.74839649	      4.26581026	      8.16268409	     -0.17042703	      2.84153397	    -16.03434522	     17.08424147	     -0.62430156	     -0.65035131	      0.84490458	      8.41531620
      3.53000000	     -5.63669188	      0.07334567	    -38.09156601	      0.19073259	      0.88122630	      0.31322175	     27.85466722	     -0.65103063	      1.51862077	    -52.24455795	      8.90992978	      4.00703798	      7.47533247	     -0.12926102	      3.03926791	    -16.02445780	     17.49727701	     -0.91086675	     -0.75022197	      0.91993723	      8.35555926
      3.54000000	     -5.54209398	     -0.07155658	    -37.94160686	      0.19636816	      0.88092916	      0.31661613	     28.16717211	     -0.56103239	      1.47507104	    -50.45537140	      9.05870149	      3.89089511	      6.84961842	     -0.11125399	      3.20782399	    -16.05448211	     17.91379235	     -1.08712469	     -0.81935320	      1.01703920	      8.24737021
      3.55000000	     -5.43541161	     -0.19898666	    -37.79624598	      0.20199830	      0.88058343	      0.32003138	     28.44564142	     -0.49947569	      1.42597380	    -48.58837092	      9.13054802	      3.79441398	      6.19681563	     -0.07584424	      3.38402508	    -16.03368127	     18.31504641	     -1.27434884	     -0.89503828	      1.09194178	      8.14977113
      3.56000000	     -5.33407370	     -0.30401075	    -37.64390390	      0.20760228	      0.88015482	      0.32346710	     28.70739400	     -0.46000004	      1.36028289	    -46.64916714	      9.13201982	      3.74907453	      5.55840138	     -0.03174449	      3.55776081	    -16.00217732	     18.70738293	     -1.45403004	     -0.95956449	      1.14870449	      8.04322595
      3.57000000	     -5.22081922	     -0.38889283	    -37.48771564	      0.21319261	      0.87966238	      0.32691834	     28.93520001	     -0.44752139	      1.29743569	    -44.64290280	      9.06254644	      3.76921947	      4.91416712	      0.03230717	      3.73435659	    -15.95491463	     19.09377356	     -1.65579927	     -1.03327033	      1.17938443	      7.94045039
      3.58000000	     -5.15521234	     -0.44813814	    -37.30504859	      0.21876212	      0.87903689	      0.33037647	     29.17780995	     -0.43943369	      1.20073710	    -42.56558676	      8.88202524	      3.86272387	      4.34174838	      0.07834552	      3.90047525	    -15.92661898	     19.47641229	     -1.77866955	     -1.05508637	      1.21939656	      7.78944691
      3.59000000	     -5.07471820	     -0.49152171	    -37.11744763	      0.22432477	      0.87835509	      0.33386146	     29.37636778	     -0.45428445	      1.11464882	    -40.42531659	      8.61779524	      4.03038067	      3.76057331	      0.14195219	      4.06965362	    -15.88861767	     19.85848960	     -1.90055068	     -1.09206600	      1.23427476	      7.64678281
      3.60000000	     -4.99123906	     -0.51814025	    -36.92003047	      0.22988951	      0.87760199	      0.33737918	     29.53853769	     -0.48745833	      1.03477747	    -38.22548122	      8.27004655	      4.27896488	      3.18589125	      0.21520370	      4.23747415	    -15.84991114	     20.24213370	     -2.01365139	     -1.13144522	      1.23042448	      7.50111665
      3.61000000	     -4.90517651	     -0.52614173	    -36.71620868	      0.23546630	      0.87677313	      0.34093683	     29.66899741	     -0.53949479	      0.96537048	    -35.97608177	      7.84737065	      4.59915616	      2.61470770	      0.29945815	      4.40671786	    -15.80476731	     20.62630506	     -2.11287540	     -1.17100176	      1.20783724	      7.35801083
      3.62000000	     -4.80533060	     -0.51259477	    -36.51344172	      0.24107646	      0.87587230	      0.34452316	     29.76726777	     -0.61999987	      0.91134988	    -33.69756633	      7.36627451	      5.01169370	      2.02955663	      0.40877929	      4.59089803	    -15.73859756	     21.00869957	     -2.20809545	     -1.21951277	      1.16065489	      7.24196309
